<svg width="489" height="312" viewBox="0 0 489 312" fill="none" xmlns="http://www.w3.org/2000/svg">
<g clip-path="url(#clip0_4960_426)">
<rect x="273" y="247" width="216" height="2" fill="white"/>
<path d="M349.704 227.848C350.92 227.848 351.971 228.077 352.856 228.536C353.752 228.984 354.435 229.629 354.904 230.472C355.384 231.315 355.624 232.307 355.624 233.448C355.624 234.589 355.384 235.581 354.904 236.424C354.435 237.256 353.752 237.896 352.856 238.344C351.971 238.781 350.92 239 349.704 239H346.232V227.848H349.704ZM349.704 237.8C351.144 237.8 352.243 237.421 353 236.664C353.757 235.896 354.136 234.824 354.136 233.448C354.136 232.061 353.752 230.979 352.984 230.2C352.227 229.421 351.133 229.032 349.704 229.032H347.688V237.8H349.704ZM364.137 236.52H359.273L358.377 239H356.84L360.873 227.912H362.553L366.569 239H365.033L364.137 236.52ZM363.721 235.336L361.705 229.704L359.689 235.336H363.721ZM375.19 227.848V229.032H372.15V239H370.694V229.032H367.638V227.848H375.19ZM383.574 236.52H378.71L377.814 239H376.278L380.31 227.912H381.99L386.006 239H384.47L383.574 236.52ZM383.158 235.336L381.142 229.704L379.126 235.336H383.158ZM393.485 229.032V232.76H397.549V233.96H393.485V237.8H398.029V239H392.029V227.832H398.029V229.032H393.485ZM409 239H407.544L401.688 230.12V239H400.232V227.832H401.688L407.544 236.696V227.832H409V239ZM410.938 233.416C410.938 232.328 411.183 231.352 411.674 230.488C412.165 229.613 412.831 228.931 413.674 228.44C414.527 227.949 415.471 227.704 416.506 227.704C417.722 227.704 418.783 227.997 419.69 228.584C420.597 229.171 421.258 230.003 421.674 231.08H419.93C419.621 230.408 419.173 229.891 418.586 229.528C418.01 229.165 417.317 228.984 416.506 228.984C415.727 228.984 415.029 229.165 414.41 229.528C413.791 229.891 413.306 230.408 412.954 231.08C412.602 231.741 412.426 232.52 412.426 233.416C412.426 234.301 412.602 235.08 412.954 235.752C413.306 236.413 413.791 236.925 414.41 237.288C415.029 237.651 415.727 237.832 416.506 237.832C417.317 237.832 418.01 237.656 418.586 237.304C419.173 236.941 419.621 236.424 419.93 235.752H421.674C421.258 236.819 420.597 237.645 419.69 238.232C418.783 238.808 417.722 239.096 416.506 239.096C415.471 239.096 414.527 238.856 413.674 238.376C412.831 237.885 412.165 237.208 411.674 236.344C411.183 235.48 410.938 234.504 410.938 233.416ZM429.713 239L427.057 234.44H425.297V239H423.841V227.848H427.441C428.284 227.848 428.993 227.992 429.569 228.28C430.156 228.568 430.593 228.957 430.881 229.448C431.169 229.939 431.313 230.499 431.313 231.128C431.313 231.896 431.089 232.573 430.641 233.16C430.204 233.747 429.543 234.136 428.657 234.328L431.457 239H429.713ZM425.297 233.272H427.441C428.231 233.272 428.823 233.08 429.217 232.696C429.612 232.301 429.809 231.779 429.809 231.128C429.809 230.467 429.612 229.955 429.217 229.592C428.833 229.229 428.241 229.048 427.441 229.048H425.297V233.272ZM441.384 227.848L437.752 234.792V239H436.296V234.792L432.648 227.848H434.264L437.016 233.496L439.768 227.848H441.384ZM450.376 231.112C450.376 232.04 450.056 232.813 449.416 233.432C448.786 234.04 447.821 234.344 446.52 234.344H444.376V239H442.92V227.848H446.52C447.778 227.848 448.733 228.152 449.384 228.76C450.045 229.368 450.376 230.152 450.376 231.112ZM446.52 233.144C447.33 233.144 447.928 232.968 448.312 232.616C448.696 232.264 448.888 231.763 448.888 231.112C448.888 229.736 448.098 229.048 446.52 229.048H444.376V233.144H446.52ZM459.049 227.848V229.032H456.009V239H454.553V229.032H451.497V227.848H459.049ZM462.297 227.848V239H460.841V227.848H462.297ZM469.835 239.112C468.8 239.112 467.856 238.872 467.003 238.392C466.15 237.901 465.472 237.224 464.971 236.36C464.48 235.485 464.235 234.504 464.235 233.416C464.235 232.328 464.48 231.352 464.971 230.488C465.472 229.613 466.15 228.936 467.003 228.456C467.856 227.965 468.8 227.72 469.835 227.72C470.88 227.72 471.83 227.965 472.683 228.456C473.536 228.936 474.208 229.608 474.699 230.472C475.19 231.336 475.435 232.317 475.435 233.416C475.435 234.515 475.19 235.496 474.699 236.36C474.208 237.224 473.536 237.901 472.683 238.392C471.83 238.872 470.88 239.112 469.835 239.112ZM469.835 237.848C470.614 237.848 471.312 237.667 471.931 237.304C472.56 236.941 473.051 236.424 473.403 235.752C473.766 235.08 473.947 234.301 473.947 233.416C473.947 232.52 473.766 231.741 473.403 231.08C473.051 230.408 472.566 229.891 471.947 229.528C471.328 229.165 470.624 228.984 469.835 228.984C469.046 228.984 468.342 229.165 467.723 229.528C467.104 229.891 466.614 230.408 466.251 231.08C465.899 231.741 465.723 232.52 465.723 233.416C465.723 234.301 465.899 235.08 466.251 235.752C466.614 236.424 467.104 236.941 467.723 237.304C468.352 237.667 469.056 237.848 469.835 237.848ZM486.125 239H484.669L478.813 230.12V239H477.357V227.832H478.813L484.669 236.696V227.832H486.125V239Z" fill="#FFFDFE"/>
<rect x="273" y="185" width="216" height="2" fill="white"/>
<path d="M371.104 175L368.448 170.44H366.688V175H365.232V163.848H368.832C369.675 163.848 370.384 163.992 370.96 164.28C371.547 164.568 371.984 164.957 372.272 165.448C372.56 165.939 372.704 166.499 372.704 167.128C372.704 167.896 372.48 168.573 372.032 169.16C371.595 169.747 370.933 170.136 370.048 170.328L372.848 175H371.104ZM366.688 169.272H368.832C369.621 169.272 370.213 169.08 370.608 168.696C371.003 168.301 371.2 167.779 371.2 167.128C371.2 166.467 371.003 165.955 370.608 165.592C370.224 165.229 369.632 165.048 368.832 165.048H366.688V169.272ZM376.422 165.032V168.76H380.486V169.96H376.422V173.8H380.966V175H374.966V163.832H380.966V165.032H376.422ZM389.25 168.52V169.752H382.866V168.52H389.25ZM393.438 165.032V168.76H397.502V169.96H393.438V173.8H397.982V175H391.982V163.832H397.982V165.032H393.438ZM408.953 175H407.497L401.641 166.12V175H400.185V163.832H401.641L407.497 172.696V163.832H408.953V175ZM410.891 169.416C410.891 168.328 411.136 167.352 411.627 166.488C412.118 165.613 412.784 164.931 413.627 164.44C414.48 163.949 415.424 163.704 416.459 163.704C417.675 163.704 418.736 163.997 419.643 164.584C420.55 165.171 421.211 166.003 421.627 167.08H419.883C419.574 166.408 419.126 165.891 418.539 165.528C417.963 165.165 417.27 164.984 416.459 164.984C415.68 164.984 414.982 165.165 414.363 165.528C413.744 165.891 413.259 166.408 412.907 167.08C412.555 167.741 412.379 168.52 412.379 169.416C412.379 170.301 412.555 171.08 412.907 171.752C413.259 172.413 413.744 172.925 414.363 173.288C414.982 173.651 415.68 173.832 416.459 173.832C417.27 173.832 417.963 173.656 418.539 173.304C419.126 172.941 419.574 172.424 419.883 171.752H421.627C421.211 172.819 420.55 173.645 419.643 174.232C418.736 174.808 417.675 175.096 416.459 175.096C415.424 175.096 414.48 174.856 413.627 174.376C412.784 173.885 412.118 173.208 411.627 172.344C411.136 171.48 410.891 170.504 410.891 169.416ZM429.667 175L427.011 170.44H425.251V175H423.795V163.848H427.395C428.237 163.848 428.947 163.992 429.523 164.28C430.109 164.568 430.547 164.957 430.835 165.448C431.123 165.939 431.267 166.499 431.267 167.128C431.267 167.896 431.043 168.573 430.595 169.16C430.157 169.747 429.496 170.136 428.611 170.328L431.411 175H429.667ZM425.251 169.272H427.395C428.184 169.272 428.776 169.08 429.171 168.696C429.565 168.301 429.763 167.779 429.763 167.128C429.763 166.467 429.565 165.955 429.171 165.592C428.787 165.229 428.195 165.048 427.395 165.048H425.251V169.272ZM441.337 163.848L437.705 170.792V175H436.249V170.792L432.601 163.848H434.217L436.969 169.496L439.721 163.848H441.337ZM450.329 167.112C450.329 168.04 450.009 168.813 449.369 169.432C448.739 170.04 447.774 170.344 446.473 170.344H444.329V175H442.873V163.848H446.473C447.731 163.848 448.686 164.152 449.337 164.76C449.998 165.368 450.329 166.152 450.329 167.112ZM446.473 169.144C447.283 169.144 447.881 168.968 448.265 168.616C448.649 168.264 448.841 167.763 448.841 167.112C448.841 165.736 448.051 165.048 446.473 165.048H444.329V169.144H446.473ZM459.002 163.848V165.032H455.962V175H454.506V165.032H451.45V163.848H459.002ZM462.251 163.848V175H460.795V163.848H462.251ZM469.788 175.112C468.753 175.112 467.809 174.872 466.956 174.392C466.103 173.901 465.425 173.224 464.924 172.36C464.433 171.485 464.188 170.504 464.188 169.416C464.188 168.328 464.433 167.352 464.924 166.488C465.425 165.613 466.103 164.936 466.956 164.456C467.809 163.965 468.753 163.72 469.788 163.72C470.833 163.72 471.783 163.965 472.636 164.456C473.489 164.936 474.161 165.608 474.652 166.472C475.143 167.336 475.388 168.317 475.388 169.416C475.388 170.515 475.143 171.496 474.652 172.36C474.161 173.224 473.489 173.901 472.636 174.392C471.783 174.872 470.833 175.112 469.788 175.112ZM469.788 173.848C470.567 173.848 471.265 173.667 471.884 173.304C472.513 172.941 473.004 172.424 473.356 171.752C473.719 171.08 473.9 170.301 473.9 169.416C473.9 168.52 473.719 167.741 473.356 167.08C473.004 166.408 472.519 165.891 471.9 165.528C471.281 165.165 470.577 164.984 469.788 164.984C468.999 164.984 468.295 165.165 467.676 165.528C467.057 165.891 466.567 166.408 466.204 167.08C465.852 167.741 465.676 168.52 465.676 169.416C465.676 170.301 465.852 171.08 466.204 171.752C466.567 172.424 467.057 172.941 467.676 173.304C468.305 173.667 469.009 173.848 469.788 173.848ZM486.078 175H484.622L478.766 166.12V175H477.31V163.832H478.766L484.622 172.696V163.832H486.078V175Z" fill="#FFFDFE"/>
<rect x="273" y="122" width="216" height="2" fill="white"/>
<path d="M305.97 99.848C307.186 99.848 308.236 100.077 309.122 100.536C310.018 100.984 310.7 101.629 311.17 102.472C311.65 103.315 311.89 104.307 311.89 105.448C311.89 106.589 311.65 107.581 311.17 108.424C310.7 109.256 310.018 109.896 309.122 110.344C308.236 110.781 307.186 111 305.97 111H302.498V99.848H305.97ZM305.97 109.8C307.41 109.8 308.508 109.421 309.266 108.664C310.023 107.896 310.402 106.824 310.402 105.448C310.402 104.061 310.018 102.979 309.25 102.2C308.492 101.421 307.399 101.032 305.97 101.032H303.954V109.8H305.97ZM315.234 99.848V106.904C315.234 107.896 315.474 108.632 315.954 109.112C316.445 109.592 317.122 109.832 317.986 109.832C318.839 109.832 319.506 109.592 319.986 109.112C320.477 108.632 320.722 107.896 320.722 106.904V99.848H322.178V106.888C322.178 107.816 321.991 108.6 321.618 109.24C321.245 109.869 320.738 110.339 320.098 110.648C319.469 110.957 318.759 111.112 317.97 111.112C317.181 111.112 316.466 110.957 315.826 110.648C315.197 110.339 314.695 109.869 314.322 109.24C313.959 108.6 313.778 107.816 313.778 106.888V99.848H315.234ZM331.199 108.52H326.335L325.439 111H323.903L327.935 99.912H329.615L333.631 111H332.095L331.199 108.52ZM330.783 107.336L328.767 101.704L326.751 107.336H330.783ZM336.844 109.816H340.748V111H335.388V99.848H336.844V109.816ZM357.872 99.928V111H356.416V102.744L352.736 111H351.712L348.016 102.728V111H346.56V99.928H348.128L352.224 109.08L356.32 99.928H357.872ZM361.797 101.032V104.76H365.861V105.96H361.797V109.8H366.341V111H360.341V99.832H366.341V101.032H361.797ZM375.409 99.848V101.032H372.369V111H370.913V101.032H367.857V99.848H375.409ZM385.793 99.848V111H384.337V105.944H378.657V111H377.201V99.848H378.657V104.744H384.337V99.848H385.793ZM393.335 111.112C392.3 111.112 391.356 110.872 390.503 110.392C389.65 109.901 388.972 109.224 388.471 108.36C387.98 107.485 387.735 106.504 387.735 105.416C387.735 104.328 387.98 103.352 388.471 102.488C388.972 101.613 389.65 100.936 390.503 100.456C391.356 99.9653 392.3 99.72 393.335 99.72C394.38 99.72 395.33 99.9653 396.183 100.456C397.036 100.936 397.708 101.608 398.199 102.472C398.69 103.336 398.935 104.317 398.935 105.416C398.935 106.515 398.69 107.496 398.199 108.36C397.708 109.224 397.036 109.901 396.183 110.392C395.33 110.872 394.38 111.112 393.335 111.112ZM393.335 109.848C394.114 109.848 394.812 109.667 395.431 109.304C396.06 108.941 396.551 108.424 396.903 107.752C397.266 107.08 397.447 106.301 397.447 105.416C397.447 104.52 397.266 103.741 396.903 103.08C396.551 102.408 396.066 101.891 395.447 101.528C394.828 101.165 394.124 100.984 393.335 100.984C392.546 100.984 391.842 101.165 391.223 101.528C390.604 101.891 390.114 102.408 389.751 103.08C389.399 103.741 389.223 104.52 389.223 105.416C389.223 106.301 389.399 107.08 389.751 107.752C390.114 108.424 390.604 108.941 391.223 109.304C391.852 109.667 392.556 109.848 393.335 109.848ZM404.329 99.848C405.545 99.848 406.596 100.077 407.481 100.536C408.377 100.984 409.06 101.629 409.529 102.472C410.009 103.315 410.249 104.307 410.249 105.448C410.249 106.589 410.009 107.581 409.529 108.424C409.06 109.256 408.377 109.896 407.481 110.344C406.596 110.781 405.545 111 404.329 111H400.857V99.848H404.329ZM404.329 109.8C405.769 109.8 406.868 109.421 407.625 108.664C408.382 107.896 408.761 106.824 408.761 105.448C408.761 104.061 408.377 102.979 407.609 102.2C406.852 101.421 405.758 101.032 404.329 101.032H402.313V109.8H404.329ZM419.971 111.112C419.235 111.112 418.574 110.984 417.987 110.728C417.411 110.461 416.958 110.099 416.627 109.64C416.296 109.171 416.126 108.632 416.115 108.024H417.667C417.72 108.547 417.934 108.989 418.307 109.352C418.691 109.704 419.246 109.88 419.971 109.88C420.664 109.88 421.208 109.709 421.603 109.368C422.008 109.016 422.211 108.568 422.211 108.024C422.211 107.597 422.094 107.251 421.859 106.984C421.624 106.717 421.331 106.515 420.979 106.376C420.627 106.237 420.152 106.088 419.555 105.928C418.819 105.736 418.227 105.544 417.779 105.352C417.342 105.16 416.963 104.861 416.643 104.456C416.334 104.04 416.179 103.485 416.179 102.792C416.179 102.184 416.334 101.645 416.643 101.176C416.952 100.707 417.384 100.344 417.939 100.088C418.504 99.832 419.15 99.704 419.875 99.704C420.92 99.704 421.774 99.9653 422.435 100.488C423.107 101.011 423.486 101.704 423.571 102.568H421.971C421.918 102.141 421.694 101.768 421.299 101.448C420.904 101.117 420.382 100.952 419.731 100.952C419.123 100.952 418.627 101.112 418.243 101.432C417.859 101.741 417.667 102.179 417.667 102.744C417.667 103.149 417.779 103.48 418.003 103.736C418.238 103.992 418.52 104.189 418.851 104.328C419.192 104.456 419.667 104.605 420.275 104.776C421.011 104.979 421.603 105.181 422.051 105.384C422.499 105.576 422.883 105.88 423.203 106.296C423.523 106.701 423.683 107.256 423.683 107.96C423.683 108.504 423.539 109.016 423.251 109.496C422.963 109.976 422.536 110.365 421.971 110.664C421.406 110.963 420.739 111.112 419.971 111.112ZM432.69 99.848V101.032H429.65V111H428.194V101.032H425.138V99.848H432.69ZM439.538 111.112C438.503 111.112 437.559 110.872 436.706 110.392C435.853 109.901 435.175 109.224 434.674 108.36C434.183 107.485 433.938 106.504 433.938 105.416C433.938 104.328 434.183 103.352 434.674 102.488C435.175 101.613 435.853 100.936 436.706 100.456C437.559 99.9653 438.503 99.72 439.538 99.72C440.583 99.72 441.533 99.9653 442.386 100.456C443.239 100.936 443.911 101.608 444.402 102.472C444.893 103.336 445.138 104.317 445.138 105.416C445.138 106.515 444.893 107.496 444.402 108.36C443.911 109.224 443.239 109.901 442.386 110.392C441.533 110.872 440.583 111.112 439.538 111.112ZM439.538 109.848C440.317 109.848 441.015 109.667 441.634 109.304C442.263 108.941 442.754 108.424 443.106 107.752C443.469 107.08 443.65 106.301 443.65 105.416C443.65 104.52 443.469 103.741 443.106 103.08C442.754 102.408 442.269 101.891 441.65 101.528C441.031 101.165 440.327 100.984 439.538 100.984C438.749 100.984 438.045 101.165 437.426 101.528C436.807 101.891 436.317 102.408 435.954 103.08C435.602 103.741 435.426 104.52 435.426 105.416C435.426 106.301 435.602 107.08 435.954 107.752C436.317 108.424 436.807 108.941 437.426 109.304C438.055 109.667 438.759 109.848 439.538 109.848ZM452.932 111L450.276 106.44H448.516V111H447.06V99.848H450.66C451.503 99.848 452.212 99.992 452.788 100.28C453.375 100.568 453.812 100.957 454.1 101.448C454.388 101.939 454.532 102.499 454.532 103.128C454.532 103.896 454.308 104.573 453.86 105.16C453.423 105.747 452.761 106.136 451.876 106.328L454.676 111H452.932ZM448.516 105.272H450.66C451.449 105.272 452.041 105.08 452.436 104.696C452.831 104.301 453.028 103.779 453.028 103.128C453.028 102.467 452.831 101.955 452.436 101.592C452.052 101.229 451.46 101.048 450.66 101.048H448.516V105.272ZM463.387 108.52H458.523L457.627 111H456.09L460.123 99.912H461.803L465.819 111H464.283L463.387 108.52ZM462.971 107.336L460.955 101.704L458.939 107.336H462.971ZM476.024 103.08C475.714 102.429 475.266 101.928 474.68 101.576C474.093 101.213 473.41 101.032 472.632 101.032C471.853 101.032 471.149 101.213 470.52 101.576C469.901 101.928 469.41 102.44 469.048 103.112C468.696 103.773 468.52 104.541 468.52 105.416C468.52 106.291 468.696 107.059 469.048 107.72C469.41 108.381 469.901 108.893 470.52 109.256C471.149 109.608 471.853 109.784 472.632 109.784C473.72 109.784 474.616 109.459 475.32 108.808C476.024 108.157 476.434 107.277 476.552 106.168H472.104V104.984H478.104V106.104C478.018 107.021 477.73 107.864 477.24 108.632C476.749 109.389 476.104 109.992 475.304 110.44C474.504 110.877 473.613 111.096 472.632 111.096C471.597 111.096 470.653 110.856 469.8 110.376C468.946 109.885 468.269 109.208 467.768 108.344C467.277 107.48 467.032 106.504 467.032 105.416C467.032 104.328 467.277 103.352 467.768 102.488C468.269 101.613 468.946 100.936 469.8 100.456C470.653 99.9653 471.597 99.72 472.632 99.72C473.816 99.72 474.861 100.013 475.768 100.6C476.685 101.187 477.352 102.013 477.768 103.08H476.024ZM481.485 101.032V104.76H485.549V105.96H481.485V109.8H486.029V111H480.029V99.832H486.029V101.032H481.485Z" fill="#FFFDFE"/>
<rect x="273" y="60" width="216" height="2" fill="white"/>
<path d="M292.288 50.112C291.253 50.112 290.309 49.872 289.456 49.392C288.603 48.9013 287.925 48.224 287.424 47.36C286.933 46.4853 286.688 45.504 286.688 44.416C286.688 43.328 286.933 42.352 287.424 41.488C287.925 40.6133 288.603 39.936 289.456 39.456C290.309 38.9653 291.253 38.72 292.288 38.72C293.333 38.72 294.283 38.9653 295.136 39.456C295.989 39.936 296.661 40.608 297.152 41.472C297.643 42.336 297.888 43.3173 297.888 44.416C297.888 45.5147 297.643 46.496 297.152 47.36C296.661 48.224 295.989 48.9013 295.136 49.392C294.283 49.872 293.333 50.112 292.288 50.112ZM292.288 48.848C293.067 48.848 293.765 48.6667 294.384 48.304C295.013 47.9413 295.504 47.424 295.856 46.752C296.219 46.08 296.4 45.3013 296.4 44.416C296.4 43.52 296.219 42.7413 295.856 42.08C295.504 41.408 295.019 40.8907 294.4 40.528C293.781 40.1653 293.077 39.984 292.288 39.984C291.499 39.984 290.795 40.1653 290.176 40.528C289.557 40.8907 289.067 41.408 288.704 42.08C288.352 42.7413 288.176 43.52 288.176 44.416C288.176 45.3013 288.352 46.08 288.704 46.752C289.067 47.424 289.557 47.9413 290.176 48.304C290.805 48.6667 291.509 48.848 292.288 48.848ZM313.826 38.848L310.594 50H308.962L306.37 41.024L303.682 50L302.066 50.016L298.946 38.848H300.498L302.93 48.304L305.618 38.848H307.25L309.81 48.272L312.258 38.848H313.826ZM324.188 50H322.732L316.876 41.12V50H315.42V38.832H316.876L322.732 47.696V38.832H324.188V50ZM328.126 40.032V43.76H332.19V44.96H328.126V48.8H332.67V50H326.67V38.832H332.67V40.032H328.126ZM340.745 50L338.089 45.44H336.329V50H334.873V38.848H338.473C339.315 38.848 340.025 38.992 340.601 39.28C341.187 39.568 341.625 39.9573 341.913 40.448C342.201 40.9387 342.345 41.4987 342.345 42.128C342.345 42.896 342.121 43.5733 341.673 44.16C341.235 44.7467 340.574 45.136 339.689 45.328L342.489 50H340.745ZM336.329 44.272H338.473C339.262 44.272 339.854 44.08 340.249 43.696C340.643 43.3013 340.841 42.7787 340.841 42.128C340.841 41.4667 340.643 40.9547 340.249 40.592C339.865 40.2293 339.273 40.048 338.473 40.048H336.329V44.272ZM350.687 43.52V44.752H344.303V43.52H350.687ZM358.476 50.112C357.441 50.112 356.497 49.872 355.644 49.392C354.79 48.9013 354.113 48.224 353.612 47.36C353.121 46.4853 352.876 45.504 352.876 44.416C352.876 43.328 353.121 42.352 353.612 41.488C354.113 40.6133 354.79 39.936 355.644 39.456C356.497 38.9653 357.441 38.72 358.476 38.72C359.521 38.72 360.47 38.9653 361.324 39.456C362.177 39.936 362.849 40.608 363.34 41.472C363.83 42.336 364.076 43.3173 364.076 44.416C364.076 45.5147 363.83 46.496 363.34 47.36C362.849 48.224 362.177 48.9013 361.324 49.392C360.47 49.872 359.521 50.112 358.476 50.112ZM358.476 48.848C359.254 48.848 359.953 48.6667 360.572 48.304C361.201 47.9413 361.692 47.424 362.044 46.752C362.406 46.08 362.588 45.3013 362.588 44.416C362.588 43.52 362.406 42.7413 362.044 42.08C361.692 41.408 361.206 40.8907 360.588 40.528C359.969 40.1653 359.265 39.984 358.476 39.984C357.686 39.984 356.982 40.1653 356.364 40.528C355.745 40.8907 355.254 41.408 354.892 42.08C354.54 42.7413 354.364 43.52 354.364 44.416C354.364 45.3013 354.54 46.08 354.892 46.752C355.254 47.424 355.745 47.9413 356.364 48.304C356.993 48.6667 357.697 48.848 358.476 48.848ZM374.766 50H373.31L367.454 41.12V50H365.998V38.832H367.454L373.31 47.696V38.832H374.766V50ZM378.704 48.816H382.608V50H377.248V38.848H378.704V48.816ZM391.962 38.848L388.33 45.792V50H386.874V45.792L383.226 38.848H384.842L387.594 44.496L390.346 38.848H391.962ZM406.979 38.848L402.771 50H401.091L396.883 38.848H398.435L401.939 48.464L405.443 38.848H406.979ZM415.168 47.52H410.304L409.408 50H407.872L411.904 38.912H413.584L417.6 50H416.064L415.168 47.52ZM414.752 46.336L412.736 40.704L410.72 46.336H414.752ZM420.813 48.816H424.717V50H419.357V38.848H420.813V48.816ZM427.719 38.848V50H426.263V38.848H427.719ZM433.673 38.848C434.889 38.848 435.939 39.0773 436.825 39.536C437.721 39.984 438.403 40.6293 438.873 41.472C439.353 42.3147 439.593 43.3067 439.593 44.448C439.593 45.5893 439.353 46.5813 438.873 47.424C438.403 48.256 437.721 48.896 436.825 49.344C435.939 49.7813 434.889 50 433.673 50H430.201V38.848H433.673ZM433.673 48.8C435.113 48.8 436.211 48.4213 436.969 47.664C437.726 46.896 438.105 45.824 438.105 44.448C438.105 43.0613 437.721 41.9787 436.953 41.2C436.195 40.4213 435.102 40.032 433.673 40.032H431.657V48.8H433.673ZM448.105 47.52H443.241L442.345 50H440.809L444.841 38.912H446.521L450.537 50H449.001L448.105 47.52ZM447.689 46.336L445.673 40.704L443.657 46.336H447.689ZM459.159 38.848V40.032H456.119V50H454.663V40.032H451.607V38.848H459.159ZM462.407 38.848V50H460.951V38.848H462.407ZM469.944 50.112C468.91 50.112 467.966 49.872 467.112 49.392C466.259 48.9013 465.582 48.224 465.08 47.36C464.59 46.4853 464.344 45.504 464.344 44.416C464.344 43.328 464.59 42.352 465.08 41.488C465.582 40.6133 466.259 39.936 467.112 39.456C467.966 38.9653 468.91 38.72 469.944 38.72C470.99 38.72 471.939 38.9653 472.792 39.456C473.646 39.936 474.318 40.608 474.808 41.472C475.299 42.336 475.544 43.3173 475.544 44.416C475.544 45.5147 475.299 46.496 474.808 47.36C474.318 48.224 473.646 48.9013 472.792 49.392C471.939 49.872 470.99 50.112 469.944 50.112ZM469.944 48.848C470.723 48.848 471.422 48.6667 472.04 48.304C472.67 47.9413 473.16 47.424 473.512 46.752C473.875 46.08 474.056 45.3013 474.056 44.416C474.056 43.52 473.875 42.7413 473.512 42.08C473.16 41.408 472.675 40.8907 472.056 40.528C471.438 40.1653 470.734 39.984 469.944 39.984C469.155 39.984 468.451 40.1653 467.832 40.528C467.214 40.8907 466.723 41.408 466.36 42.08C466.008 42.7413 465.832 43.52 465.832 44.416C465.832 45.3013 466.008 46.08 466.36 46.752C466.723 47.424 467.214 47.9413 467.832 48.304C468.462 48.6667 469.166 48.848 469.944 48.848ZM486.234 50H484.778L478.922 41.12V50H477.466V38.832H478.922L484.778 47.696V38.832H486.234V50Z" fill="#FFFDFE"/>
<path fill-rule="evenodd" clip-rule="evenodd" d="M0 249.5C0 257.219 13.5545 263.406 40.6633 275.828L78.9926 293.375C106.101 305.813 119.67 312 136.5 312C153.344 312 166.899 305.797 194.007 293.391L232.337 275.828C259.446 263.422 273 257.219 273 249.5C273 241.781 259.446 235.594 232.337 223.172L194.007 205.625C166.899 193.203 153.33 187 136.5 187C119.656 187 106.101 193.203 78.9926 205.625L40.677 223.172C13.5544 235.578 0 241.781 0 249.5Z" fill="#709EEA"/>
<path fill-rule="evenodd" clip-rule="evenodd" d="M0 186.5C0 194.219 13.5545 200.406 40.6633 212.828L78.9926 230.375C106.101 242.813 119.67 249 136.5 249C153.344 249 166.899 242.797 194.007 230.391L232.337 212.828C259.446 200.422 273 194.219 273 186.5C273 178.781 259.446 172.594 232.337 160.172L194.007 142.625C166.899 130.203 153.33 124 136.5 124C119.656 124 106.101 130.203 78.9926 142.625L40.677 160.172C13.5544 172.578 0 178.781 0 186.5Z" fill="#527EC8"/>
<path fill-rule="evenodd" clip-rule="evenodd" d="M0 124.5C0 132.219 13.5545 138.406 40.6633 150.828L78.9926 168.375C106.101 180.813 119.67 187 136.5 187C153.344 187 166.899 180.797 194.007 168.391L232.337 150.828C259.446 138.422 273 132.219 273 124.5C273 116.781 259.446 110.594 232.337 98.1719L194.007 80.625C166.899 68.2031 153.33 62 136.5 62C119.656 62 106.101 68.2031 78.9926 80.625L40.677 98.1719C13.5544 110.578 0 116.781 0 124.5Z" fill="#41659F"/>
<path fill-rule="evenodd" clip-rule="evenodd" d="M0 62.5C0 70.2188 13.5545 76.4063 40.6633 88.8282L78.9926 106.375C106.101 118.813 119.67 125 136.5 125C153.344 125 166.899 118.797 194.007 106.391L232.337 88.8282C259.446 76.4219 273 70.2188 273 62.5C273 54.7813 259.446 48.5938 232.337 36.1719L194.007 18.625C166.899 6.20313 153.33 0 136.5 0C119.656 0 106.101 6.20313 78.9926 18.625L40.677 36.1719C13.5544 48.5782 0 54.7813 0 62.5Z" fill="#2B4570"/>
</g>
<defs>
<clipPath id="clip0_4960_426">
<rect width="489" height="312" fill="white"/>
</clipPath>
</defs>
</svg>
