<svg width="541" height="185" viewBox="0 0 541 185" fill="none" xmlns="http://www.w3.org/2000/svg">
<path d="M152.892 100.806H103.584V85.0703H152.892V100.806ZM159.919 136H103.584C101.422 136 99.0596 135.62 96.4971 134.859C93.9346 134.098 91.5522 132.857 89.3501 131.135C87.188 129.374 85.3662 127.111 83.8848 124.349C82.4434 121.546 81.7227 118.123 81.7227 114.079V57.7437C81.7227 56.6626 81.9229 55.6416 82.3232 54.6807C82.7236 53.7197 83.2642 52.8789 83.9448 52.1582C84.6655 51.4375 85.5063 50.877 86.4673 50.4766C87.4282 50.0762 88.4692 49.876 89.5903 49.876H159.919V65.4912H97.3379V114.079C97.3379 116.121 97.8784 117.682 98.9595 118.763C100.041 119.844 101.622 120.385 103.704 120.385H159.919V136ZM261.118 78.8242C261.118 82.3877 260.677 85.5708 259.796 88.3735C258.916 91.1763 257.714 93.6587 256.193 95.8208C254.711 97.9429 252.99 99.7646 251.028 101.286C249.066 102.808 247.004 104.069 244.842 105.07C242.72 106.031 240.558 106.731 238.355 107.172C236.193 107.612 234.151 107.833 232.229 107.833L264.841 136H240.698L208.146 107.833H196.915V92.2173H232.229C234.191 92.0571 235.973 91.6567 237.575 91.0161C239.216 90.3354 240.618 89.4346 241.779 88.3135C242.98 87.1924 243.901 85.8511 244.542 84.2896C245.182 82.688 245.502 80.8662 245.502 78.8242V68.9746C245.502 68.0938 245.382 67.4331 245.142 66.9927C244.942 66.5122 244.662 66.1719 244.301 65.9717C243.981 65.7314 243.621 65.5913 243.22 65.5513C242.86 65.5112 242.52 65.4912 242.199 65.4912H190.669V136H175.054V57.7437C175.054 56.6626 175.254 55.6416 175.654 54.6807C176.055 53.7197 176.595 52.8789 177.276 52.1582C177.997 51.4375 178.837 50.877 179.798 50.4766C180.759 50.0762 181.8 49.876 182.921 49.876H242.199C245.683 49.876 248.625 50.5166 251.028 51.7979C253.43 53.0391 255.372 54.6206 256.854 56.5425C258.375 58.4243 259.456 60.4663 260.097 62.6685C260.777 64.8706 261.118 66.9326 261.118 68.8545V78.8242ZM362.857 129.333C362.857 130.455 362.637 131.496 362.196 132.457C361.796 133.417 361.235 134.258 360.515 134.979C359.834 135.66 359.013 136.2 358.052 136.601C357.091 137.001 356.07 137.201 354.989 137.201C354.028 137.201 353.047 137.021 352.046 136.661C351.085 136.3 350.225 135.72 349.464 134.919L292.408 75.3408V136H276.793V56.5425C276.793 54.9409 277.233 53.4995 278.114 52.2183C279.035 50.897 280.196 49.916 281.598 49.2754C283.079 48.6748 284.601 48.5347 286.162 48.855C287.724 49.1353 289.065 49.856 290.186 51.0171L347.242 110.535V49.876H362.857V129.333Z" fill="white"/>
<path d="M81 41H104V145H81V41Z" fill="#2B4570"/>
<rect x="192" y="84" width="21" height="61" fill="#2B4570"/>
<path d="M423.985 100.806H374.677V85.0703H423.985V100.806ZM431.012 136H374.677C372.515 136 370.153 135.62 367.59 134.859C365.028 134.098 362.646 132.857 360.443 131.135C358.281 129.374 356.459 127.111 354.978 124.349C353.537 121.546 352.816 118.123 352.816 114.079V57.7437C352.816 56.6626 353.016 55.6416 353.417 54.6807C353.817 53.7197 354.357 52.8789 355.038 52.1582C355.759 51.4375 356.6 50.877 357.561 50.4766C358.521 50.0762 359.562 49.876 360.684 49.876H431.012V65.4912H368.431V114.079C368.431 116.121 368.972 117.682 370.053 118.763C371.134 119.844 372.715 120.385 374.797 120.385H431.012V136ZM485.485 80.626L511.791 49.876H533.112L496.056 93.0581L532.872 136H511.671L485.485 105.49L459.42 136H438.159L474.915 93.0581L438.039 49.876H459.18L485.485 80.626Z" fill="white"/>
<path d="M513 93L534 70.4833V115.517L513 93Z" fill="#E94981"/>
<rect x="362" y="32" width="17" height="122" fill="#2B4570"/>
<path d="M86.2393 136H29.9043C28.4629 136 26.9014 135.84 25.2197 135.52C23.5781 135.159 21.9365 134.619 20.2949 133.898C18.6934 133.177 17.1519 132.256 15.6704 131.135C14.189 129.974 12.8677 128.593 11.7065 126.991C10.5854 125.35 9.68457 123.468 9.00391 121.346C8.32324 119.184 7.98291 116.761 7.98291 114.079V71.7974C7.98291 70.356 8.14307 68.8145 8.46338 67.1729C8.82373 65.4912 9.36426 63.8496 10.085 62.248C10.8057 60.6064 11.7466 59.0449 12.9077 57.5635C14.0688 56.082 15.4502 54.7808 17.0518 53.6597C18.6934 52.4985 20.5752 51.5776 22.6973 50.897C24.8193 50.2163 27.2217 49.876 29.9043 49.876H86.2393V65.4912H29.9043C27.8623 65.4912 26.3008 66.0317 25.2197 67.1128C24.1387 68.1938 23.5981 69.7954 23.5981 71.9175V114.079C23.5981 116.081 24.1387 117.642 25.2197 118.763C26.3408 119.844 27.9023 120.385 29.9043 120.385H86.2393V136Z" fill="white"/>
</svg>
