<svg width="433" height="276" viewBox="0 0 433 276" fill="none" xmlns="http://www.w3.org/2000/svg">
<path d="M192.248 10.288C192.248 10.8853 192.104 11.4453 191.816 11.968C191.539 12.4907 191.096 12.912 190.488 13.232C189.891 13.552 189.133 13.712 188.216 13.712H186.344V18H184.104V6.832H188.216C189.08 6.832 189.816 6.98133 190.424 7.28C191.032 7.57867 191.485 7.98933 191.784 8.512C192.093 9.03467 192.248 9.62667 192.248 10.288ZM188.12 11.904C188.739 11.904 189.197 11.7653 189.496 11.488C189.795 11.2 189.944 10.8 189.944 10.288C189.944 9.2 189.336 8.656 188.12 8.656H186.344V11.904H188.12ZM197.646 6.832V13.744C197.646 14.5013 197.844 15.0827 198.238 15.488C198.633 15.8827 199.188 16.08 199.902 16.08C200.628 16.08 201.188 15.8827 201.582 15.488C201.977 15.0827 202.174 14.5013 202.174 13.744V6.832H204.43V13.728C204.43 14.6773 204.222 15.4827 203.806 16.144C203.401 16.7947 202.852 17.2853 202.158 17.616C201.476 17.9467 200.713 18.112 199.87 18.112C199.038 18.112 198.281 17.9467 197.598 17.616C196.926 17.2853 196.393 16.7947 195.998 16.144C195.604 15.4827 195.406 14.6773 195.406 13.728V6.832H197.646ZM213.955 18L211.491 13.648H210.435V18H208.195V6.832H212.387C213.251 6.832 213.987 6.98667 214.595 7.296C215.203 7.59467 215.656 8.00533 215.955 8.528C216.264 9.04 216.419 9.616 216.419 10.256C216.419 10.992 216.205 11.6587 215.779 12.256C215.352 12.8427 214.717 13.248 213.875 13.472L216.547 18H213.955ZM210.435 11.968H212.307C212.915 11.968 213.368 11.824 213.667 11.536C213.965 11.2373 214.115 10.8267 214.115 10.304C214.115 9.792 213.965 9.39733 213.667 9.12C213.368 8.832 212.915 8.688 212.307 8.688H210.435V11.968ZM219.501 12.4C219.501 11.3013 219.746 10.32 220.237 9.456C220.738 8.58133 221.415 7.904 222.269 7.424C223.133 6.93333 224.098 6.688 225.165 6.688C226.413 6.688 227.506 7.008 228.445 7.648C229.383 8.288 230.039 9.17333 230.413 10.304H227.837C227.581 9.77067 227.218 9.37067 226.749 9.104C226.29 8.83733 225.757 8.704 225.149 8.704C224.498 8.704 223.917 8.85867 223.405 9.168C222.903 9.46667 222.509 9.89333 222.221 10.448C221.943 11.0027 221.805 11.6533 221.805 12.4C221.805 13.136 221.943 13.7867 222.221 14.352C222.509 14.9067 222.903 15.3387 223.405 15.648C223.917 15.9467 224.498 16.096 225.149 16.096C225.757 16.096 226.29 15.9627 226.749 15.696C227.218 15.4187 227.581 15.0133 227.837 14.48H230.413C230.039 15.6213 229.383 16.512 228.445 17.152C227.517 17.7813 226.423 18.096 225.165 18.096C224.098 18.096 223.133 17.856 222.269 17.376C221.415 16.8853 220.738 16.208 220.237 15.344C219.746 14.48 219.501 13.4987 219.501 12.4ZM243.19 6.832V18H240.95V13.248H236.166V18H233.926V6.832H236.166V11.424H240.95V6.832H243.19ZM253.843 15.872H249.395L248.659 18H246.307L250.323 6.816H252.931L256.947 18H254.579L253.843 15.872ZM253.235 14.08L251.619 9.408L250.003 14.08H253.235ZM263.904 18.112C263.125 18.112 262.421 17.9787 261.792 17.712C261.173 17.4453 260.682 17.0613 260.32 16.56C259.957 16.0587 259.77 15.4667 259.76 14.784H262.16C262.192 15.2427 262.352 15.6053 262.64 15.872C262.938 16.1387 263.344 16.272 263.856 16.272C264.378 16.272 264.789 16.1493 265.088 15.904C265.386 15.648 265.536 15.3173 265.536 14.912C265.536 14.5813 265.434 14.3093 265.232 14.096C265.029 13.8827 264.773 13.7173 264.464 13.6C264.165 13.472 263.749 13.3333 263.216 13.184C262.49 12.9707 261.898 12.7627 261.44 12.56C260.992 12.3467 260.602 12.032 260.272 11.616C259.952 11.1893 259.792 10.624 259.792 9.92C259.792 9.25867 259.957 8.68267 260.288 8.192C260.618 7.70133 261.082 7.328 261.68 7.072C262.277 6.80533 262.96 6.672 263.728 6.672C264.88 6.672 265.813 6.95467 266.528 7.52C267.253 8.07467 267.653 8.85333 267.728 9.856H265.264C265.242 9.472 265.077 9.15733 264.768 8.912C264.469 8.656 264.069 8.528 263.568 8.528C263.13 8.528 262.778 8.64 262.512 8.864C262.256 9.088 262.128 9.41333 262.128 9.84C262.128 10.1387 262.224 10.3893 262.416 10.592C262.618 10.784 262.864 10.944 263.152 11.072C263.45 11.1893 263.866 11.328 264.4 11.488C265.125 11.7013 265.717 11.9147 266.176 12.128C266.634 12.3413 267.029 12.6613 267.36 13.088C267.69 13.5147 267.856 14.0747 267.856 14.768C267.856 15.3653 267.701 15.92 267.392 16.432C267.082 16.944 266.629 17.3547 266.032 17.664C265.434 17.9627 264.725 18.112 263.904 18.112ZM273.638 8.64V11.44H277.398V13.216H273.638V16.176H277.878V18H271.398V6.816H277.878V8.64H273.638ZM290.83 6.832C292.003 6.832 293.033 7.06133 293.918 7.52C294.814 7.97867 295.502 8.63467 295.982 9.488C296.473 10.3307 296.718 11.312 296.718 12.432C296.718 13.552 296.473 14.5333 295.982 15.376C295.502 16.208 294.814 16.8533 293.918 17.312C293.033 17.7707 292.003 18 290.83 18H286.926V6.832H290.83ZM290.75 16.096C291.923 16.096 292.83 15.776 293.47 15.136C294.11 14.496 294.43 13.5947 294.43 12.432C294.43 11.2693 294.11 10.3627 293.47 9.712C292.83 9.05067 291.923 8.72 290.75 8.72H289.166V16.096H290.75ZM302.235 8.64V11.44H305.995V13.216H302.235V16.176H306.475V18H299.995V6.816H306.475V8.64H302.235ZM317.71 6.832V8.64H314.734V18H312.494V8.64H309.518V6.832H317.71ZM327.793 15.872H323.345L322.609 18H320.257L324.273 6.816H326.881L330.897 18H328.529L327.793 15.872ZM327.185 14.08L325.569 9.408L323.953 14.08H327.185ZM336.238 6.832V18H333.998V6.832H336.238ZM342.291 16.224H345.971V18H340.051V6.832H342.291V16.224ZM352.851 18.112C352.072 18.112 351.368 17.9787 350.739 17.712C350.12 17.4453 349.629 17.0613 349.267 16.56C348.904 16.0587 348.717 15.4667 348.707 14.784H351.107C351.139 15.2427 351.299 15.6053 351.587 15.872C351.885 16.1387 352.291 16.272 352.803 16.272C353.325 16.272 353.736 16.1493 354.035 15.904C354.333 15.648 354.483 15.3173 354.483 14.912C354.483 14.5813 354.381 14.3093 354.179 14.096C353.976 13.8827 353.72 13.7173 353.411 13.6C353.112 13.472 352.696 13.3333 352.163 13.184C351.437 12.9707 350.845 12.7627 350.387 12.56C349.939 12.3467 349.549 12.032 349.219 11.616C348.899 11.1893 348.739 10.624 348.739 9.92C348.739 9.25867 348.904 8.68267 349.235 8.192C349.565 7.70133 350.029 7.328 350.627 7.072C351.224 6.80533 351.907 6.672 352.675 6.672C353.827 6.672 354.76 6.95467 355.475 7.52C356.2 8.07467 356.6 8.85333 356.675 9.856H354.211C354.189 9.472 354.024 9.15733 353.715 8.912C353.416 8.656 353.016 8.528 352.515 8.528C352.077 8.528 351.725 8.64 351.459 8.864C351.203 9.088 351.075 9.41333 351.075 9.84C351.075 10.1387 351.171 10.3893 351.363 10.592C351.565 10.784 351.811 10.944 352.099 11.072C352.397 11.1893 352.813 11.328 353.347 11.488C354.072 11.7013 354.664 11.9147 355.123 12.128C355.581 12.3413 355.976 12.6613 356.307 13.088C356.637 13.5147 356.803 14.0747 356.803 14.768C356.803 15.3653 356.648 15.92 356.339 16.432C356.029 16.944 355.576 17.3547 354.979 17.664C354.381 17.9627 353.672 18.112 352.851 18.112Z" fill="#FFFDFE"/>
<path d="M217.56 54.4C217.56 53.3013 217.805 52.32 218.296 51.456C218.797 50.5813 219.475 49.904 220.328 49.424C221.192 48.9333 222.157 48.688 223.224 48.688C224.472 48.688 225.565 49.008 226.504 49.648C227.443 50.288 228.099 51.1733 228.472 52.304H225.896C225.64 51.7707 225.277 51.3707 224.808 51.104C224.349 50.8373 223.816 50.704 223.208 50.704C222.557 50.704 221.976 50.8587 221.464 51.168C220.963 51.4667 220.568 51.8933 220.28 52.448C220.003 53.0027 219.864 53.6533 219.864 54.4C219.864 55.136 220.003 55.7867 220.28 56.352C220.568 56.9067 220.963 57.3387 221.464 57.648C221.976 57.9467 222.557 58.096 223.208 58.096C223.816 58.096 224.349 57.9627 224.808 57.696C225.277 57.4187 225.64 57.0133 225.896 56.48H228.472C228.099 57.6213 227.443 58.512 226.504 59.152C225.576 59.7813 224.483 60.096 223.224 60.096C222.157 60.096 221.192 59.856 220.328 59.376C219.475 58.8853 218.797 58.208 218.296 57.344C217.805 56.48 217.56 55.4987 217.56 54.4ZM234.193 48.832V55.744C234.193 56.5013 234.391 57.0827 234.785 57.488C235.18 57.8827 235.735 58.08 236.449 58.08C237.175 58.08 237.735 57.8827 238.129 57.488C238.524 57.0827 238.721 56.5013 238.721 55.744V48.832H240.977V55.728C240.977 56.6773 240.769 57.4827 240.353 58.144C239.948 58.7947 239.399 59.2853 238.705 59.616C238.023 59.9467 237.26 60.112 236.417 60.112C235.585 60.112 234.828 59.9467 234.145 59.616C233.473 59.2853 232.94 58.7947 232.545 58.144C232.151 57.4827 231.953 56.6773 231.953 55.728V48.832H234.193ZM248.598 60.112C247.819 60.112 247.115 59.9787 246.486 59.712C245.867 59.4453 245.376 59.0613 245.014 58.56C244.651 58.0587 244.464 57.4667 244.454 56.784H246.854C246.886 57.2427 247.046 57.6053 247.334 57.872C247.632 58.1387 248.038 58.272 248.55 58.272C249.072 58.272 249.483 58.1493 249.782 57.904C250.08 57.648 250.23 57.3173 250.23 56.912C250.23 56.5813 250.128 56.3093 249.926 56.096C249.723 55.8827 249.467 55.7173 249.158 55.6C248.859 55.472 248.443 55.3333 247.91 55.184C247.184 54.9707 246.592 54.7627 246.134 54.56C245.686 54.3467 245.296 54.032 244.966 53.616C244.646 53.1893 244.486 52.624 244.486 51.92C244.486 51.2587 244.651 50.6827 244.982 50.192C245.312 49.7013 245.776 49.328 246.374 49.072C246.971 48.8053 247.654 48.672 248.422 48.672C249.574 48.672 250.507 48.9547 251.222 49.52C251.947 50.0747 252.347 50.8533 252.422 51.856H249.958C249.936 51.472 249.771 51.1573 249.462 50.912C249.163 50.656 248.763 50.528 248.262 50.528C247.824 50.528 247.472 50.64 247.206 50.864C246.95 51.088 246.822 51.4133 246.822 51.84C246.822 52.1387 246.918 52.3893 247.11 52.592C247.312 52.784 247.558 52.944 247.846 53.072C248.144 53.1893 248.56 53.328 249.094 53.488C249.819 53.7013 250.411 53.9147 250.87 54.128C251.328 54.3413 251.723 54.6613 252.054 55.088C252.384 55.5147 252.55 56.0747 252.55 56.768C252.55 57.3653 252.395 57.92 252.086 58.432C251.776 58.944 251.323 59.3547 250.726 59.664C250.128 59.9627 249.419 60.112 248.598 60.112ZM263.691 48.832V50.64H260.715V60H258.475V50.64H255.499V48.832H263.691ZM272.11 60.112C271.065 60.112 270.105 59.8667 269.23 59.376C268.355 58.8853 267.662 58.208 267.15 57.344C266.638 56.4693 266.382 55.4827 266.382 54.384C266.382 53.296 266.638 52.32 267.15 51.456C267.662 50.5813 268.355 49.8987 269.23 49.408C270.105 48.9173 271.065 48.672 272.11 48.672C273.166 48.672 274.126 48.9173 274.99 49.408C275.865 49.8987 276.553 50.5813 277.054 51.456C277.566 52.32 277.822 53.296 277.822 54.384C277.822 55.4827 277.566 56.4693 277.054 57.344C276.553 58.208 275.865 58.8853 274.99 59.376C274.115 59.8667 273.155 60.112 272.11 60.112ZM272.11 58.112C272.782 58.112 273.374 57.9627 273.886 57.664C274.398 57.3547 274.798 56.9173 275.086 56.352C275.374 55.7867 275.518 55.1307 275.518 54.384C275.518 53.6373 275.374 52.9867 275.086 52.432C274.798 51.8667 274.398 51.4347 273.886 51.136C273.374 50.8373 272.782 50.688 272.11 50.688C271.438 50.688 270.841 50.8373 270.318 51.136C269.806 51.4347 269.406 51.8667 269.118 52.432C268.83 52.9867 268.686 53.6373 268.686 54.384C268.686 55.1307 268.83 55.7867 269.118 56.352C269.406 56.9173 269.806 57.3547 270.318 57.664C270.841 57.9627 271.438 58.112 272.11 58.112ZM293.264 48.832V60H291.024V52.736L288.032 60H286.336L283.328 52.736V60H281.088V48.832H283.632L287.184 57.136L290.736 48.832H293.264ZM299.319 50.64V53.44H303.079V55.216H299.319V58.176H303.559V60H297.079V48.816H303.559V50.64H299.319ZM312.955 60L310.491 55.648H309.435V60H307.195V48.832H311.387C312.251 48.832 312.987 48.9867 313.595 49.296C314.203 49.5947 314.656 50.0053 314.955 50.528C315.264 51.04 315.419 51.616 315.419 52.256C315.419 52.992 315.205 53.6587 314.779 54.256C314.352 54.8427 313.717 55.248 312.875 55.472L315.547 60L312.955 60ZM309.435 53.968H311.307C311.915 53.968 312.368 53.824 312.667 53.536C312.965 53.2373 313.115 52.8267 313.115 52.304C313.115 51.792 312.965 51.3973 312.667 51.12C312.368 50.832 311.915 50.688 311.307 50.688H309.435V53.968ZM328.361 48.832C329.534 48.832 330.564 49.0613 331.449 49.52C332.345 49.9787 333.033 50.6347 333.513 51.488C334.004 52.3307 334.249 53.312 334.249 54.432C334.249 55.552 334.004 56.5333 333.513 57.376C333.033 58.208 332.345 58.8533 331.449 59.312C330.564 59.7707 329.534 60 328.361 60H324.457V48.832H328.361ZM328.281 58.096C329.454 58.096 330.361 57.776 331.001 57.136C331.641 56.496 331.961 55.5947 331.961 54.432C331.961 53.2693 331.641 52.3627 331.001 51.712C330.361 51.0507 329.454 50.72 328.281 50.72H326.697V58.096H328.281ZM344.374 57.872H339.926L339.19 60H336.838L340.854 48.816H343.462L347.478 60H345.11L344.374 57.872ZM343.766 56.08L342.15 51.408L340.534 56.08H343.766ZM358.179 48.832V50.64H355.203V60H352.963V50.64H349.987V48.832H358.179ZM368.261 57.872H363.813L363.077 60H360.725L364.741 48.816H367.349L371.365 60H368.997L368.261 57.872ZM367.653 56.08L366.037 51.408L364.421 56.08H367.653Z" fill="#FFFDFE"/>
<path d="M238.96 102.112C238.181 102.112 237.477 101.979 236.848 101.712C236.229 101.445 235.739 101.061 235.376 100.56C235.013 100.059 234.827 99.4667 234.816 98.784H237.216C237.248 99.2427 237.408 99.6053 237.696 99.872C237.995 100.139 238.4 100.272 238.912 100.272C239.435 100.272 239.845 100.149 240.144 99.904C240.443 99.648 240.592 99.3173 240.592 98.912C240.592 98.5813 240.491 98.3093 240.288 98.096C240.085 97.8827 239.829 97.7173 239.52 97.6C239.221 97.472 238.805 97.3333 238.272 97.184C237.547 96.9707 236.955 96.7627 236.496 96.56C236.048 96.3467 235.659 96.032 235.328 95.616C235.008 95.1893 234.848 94.624 234.848 93.92C234.848 93.2587 235.013 92.6827 235.344 92.192C235.675 91.7013 236.139 91.328 236.736 91.072C237.333 90.8053 238.016 90.672 238.784 90.672C239.936 90.672 240.869 90.9547 241.584 91.52C242.309 92.0747 242.709 92.8533 242.784 93.856H240.32C240.299 93.472 240.133 93.1573 239.824 92.912C239.525 92.656 239.125 92.528 238.624 92.528C238.187 92.528 237.835 92.64 237.568 92.864C237.312 93.088 237.184 93.4133 237.184 93.84C237.184 94.1387 237.28 94.3893 237.472 94.592C237.675 94.784 237.92 94.944 238.208 95.072C238.507 95.1893 238.923 95.328 239.456 95.488C240.181 95.7013 240.773 95.9147 241.232 96.128C241.691 96.3413 242.085 96.6613 242.416 97.088C242.747 97.5147 242.912 98.0747 242.912 98.768C242.912 99.3653 242.757 99.92 242.448 100.432C242.139 100.944 241.685 101.355 241.088 101.664C240.491 101.963 239.781 102.112 238.96 102.112ZM248.694 92.64V95.44H252.454V97.216H248.694V100.176H252.934V102H246.454V90.816H252.934V92.64H248.694ZM262.33 102L259.866 97.648H258.81V102H256.57V90.832H260.762C261.626 90.832 262.362 90.9867 262.97 91.296C263.578 91.5947 264.031 92.0053 264.33 92.528C264.639 93.04 264.794 93.616 264.794 94.256C264.794 94.992 264.58 95.6587 264.154 96.256C263.727 96.8427 263.092 97.248 262.25 97.472L264.922 102H262.33ZM258.81 95.968H260.682C261.29 95.968 261.743 95.824 262.042 95.536C262.34 95.2373 262.49 94.8267 262.49 94.304C262.49 93.792 262.34 93.3973 262.042 93.12C261.743 92.832 261.29 92.688 260.682 92.688H258.81V95.968ZM270.66 90.832V102H268.42V90.832H270.66ZM281.321 99.872H276.873L276.137 102H273.785L277.801 90.816H280.409L284.425 102H282.057L281.321 99.872ZM280.713 98.08L279.097 93.408L277.481 98.08H280.713ZM289.766 100.224H293.446V102H287.526V90.832H289.766V100.224ZM311.434 102H309.194L304.122 94.336V102H301.882V90.816H304.122L309.194 98.496V90.816H311.434V102ZM314.592 93.552C314.592 92.976 314.725 92.4693 314.992 92.032C315.269 91.5947 315.642 91.2587 316.112 91.024C316.592 90.7787 317.136 90.656 317.744 90.656C318.352 90.656 318.896 90.7787 319.376 91.024C319.856 91.2587 320.229 91.5947 320.496 92.032C320.762 92.4693 320.896 92.976 320.896 93.552C320.896 94.1173 320.757 94.6187 320.48 95.056C320.213 95.4933 319.84 95.8347 319.36 96.08C318.88 96.3253 318.336 96.448 317.728 96.448C317.12 96.448 316.576 96.3253 316.096 96.08C315.626 95.8347 315.258 95.4933 314.992 95.056C314.725 94.6187 314.592 94.1173 314.592 93.552ZM319.136 93.568C319.136 93.0667 318.997 92.6773 318.72 92.4C318.453 92.1227 318.122 91.984 317.728 91.984C317.344 91.984 317.018 92.1227 316.752 92.4C316.496 92.6773 316.368 93.0667 316.368 93.568C316.368 94.048 316.496 94.4267 316.752 94.704C317.018 94.9707 317.344 95.104 317.728 95.104C318.112 95.104 318.442 94.9707 318.72 94.704C318.997 94.4267 319.136 94.048 319.136 93.568Z" fill="#FFFDFE"/>
<path d="M249.248 136.288C249.248 136.885 249.104 137.445 248.816 137.968C248.539 138.491 248.096 138.912 247.488 139.232C246.891 139.552 246.133 139.712 245.216 139.712H243.344V144H241.104V132.832H245.216C246.08 132.832 246.816 132.981 247.424 133.28C248.032 133.579 248.485 133.989 248.784 134.512C249.093 135.035 249.248 135.627 249.248 136.288ZM245.12 137.904C245.739 137.904 246.197 137.765 246.496 137.488C246.795 137.2 246.944 136.8 246.944 136.288C246.944 135.2 246.336 134.656 245.12 134.656H243.344V137.904H245.12ZM258.198 144L255.734 139.648H254.678V144H252.438V132.832H256.63C257.494 132.832 258.23 132.987 258.838 133.296C259.446 133.595 259.9 134.005 260.198 134.528C260.508 135.04 260.662 135.616 260.662 136.256C260.662 136.992 260.449 137.659 260.022 138.256C259.596 138.843 258.961 139.248 258.118 139.472L260.79 144H258.198ZM254.678 137.968H256.55C257.158 137.968 257.612 137.824 257.91 137.536C258.209 137.237 258.358 136.827 258.358 136.304C258.358 135.792 258.209 135.397 257.91 135.12C257.612 134.832 257.158 134.688 256.55 134.688H254.678V137.968ZM269.472 144.112C268.427 144.112 267.467 143.867 266.592 143.376C265.718 142.885 265.024 142.208 264.512 141.344C264 140.469 263.744 139.483 263.744 138.384C263.744 137.296 264 136.32 264.512 135.456C265.024 134.581 265.718 133.899 266.592 133.408C267.467 132.917 268.427 132.672 269.472 132.672C270.528 132.672 271.488 132.917 272.352 133.408C273.227 133.899 273.915 134.581 274.416 135.456C274.928 136.32 275.184 137.296 275.184 138.384C275.184 139.483 274.928 140.469 274.416 141.344C273.915 142.208 273.227 142.885 272.352 143.376C271.478 143.867 270.518 144.112 269.472 144.112ZM269.472 142.112C270.144 142.112 270.736 141.963 271.248 141.664C271.76 141.355 272.16 140.917 272.448 140.352C272.736 139.787 272.88 139.131 272.88 138.384C272.88 137.637 272.736 136.987 272.448 136.432C272.16 135.867 271.76 135.435 271.248 135.136C270.736 134.837 270.144 134.688 269.472 134.688C268.8 134.688 268.203 134.837 267.68 135.136C267.168 135.435 266.768 135.867 266.48 136.432C266.192 136.987 266.048 137.637 266.048 138.384C266.048 139.131 266.192 139.787 266.48 140.352C266.768 140.917 267.168 141.355 267.68 141.664C268.203 141.963 268.8 142.112 269.472 142.112ZM282.355 132.832C283.528 132.832 284.558 133.061 285.443 133.52C286.339 133.979 287.027 134.635 287.507 135.488C287.998 136.331 288.243 137.312 288.243 138.432C288.243 139.552 287.998 140.533 287.507 141.376C287.027 142.208 286.339 142.853 285.443 143.312C284.558 143.771 283.528 144 282.355 144H278.451V132.832H282.355ZM282.275 142.096C283.448 142.096 284.355 141.776 284.995 141.136C285.635 140.496 285.955 139.595 285.955 138.432C285.955 137.269 285.635 136.363 284.995 135.712C284.355 135.051 283.448 134.72 282.275 134.72H280.691V142.096H282.275ZM293.728 132.832V139.744C293.728 140.501 293.925 141.083 294.32 141.488C294.714 141.883 295.269 142.08 295.984 142.08C296.709 142.08 297.269 141.883 297.664 141.488C298.058 141.083 298.256 140.501 298.256 139.744V132.832H300.512V139.728C300.512 140.677 300.304 141.483 299.888 142.144C299.482 142.795 298.933 143.285 298.24 143.616C297.557 143.947 296.794 144.112 295.952 144.112C295.12 144.112 294.362 143.947 293.68 143.616C293.008 143.285 292.474 142.795 292.08 142.144C291.685 141.483 291.488 140.677 291.488 139.728V132.832H293.728ZM303.732 138.4C303.732 137.301 303.977 136.32 304.468 135.456C304.969 134.581 305.647 133.904 306.5 133.424C307.364 132.933 308.329 132.688 309.396 132.688C310.644 132.688 311.737 133.008 312.676 133.648C313.615 134.288 314.271 135.173 314.644 136.304H312.068C311.812 135.771 311.449 135.371 310.98 135.104C310.521 134.837 309.988 134.704 309.38 134.704C308.729 134.704 308.148 134.859 307.636 135.168C307.135 135.467 306.74 135.893 306.452 136.448C306.175 137.003 306.036 137.653 306.036 138.4C306.036 139.136 306.175 139.787 306.452 140.352C306.74 140.907 307.135 141.339 307.636 141.648C308.148 141.947 308.729 142.096 309.38 142.096C309.988 142.096 310.521 141.963 310.98 141.696C311.449 141.419 311.812 141.013 312.068 140.48H314.644C314.271 141.621 313.615 142.512 312.676 143.152C311.748 143.781 310.655 144.096 309.396 144.096C308.329 144.096 307.364 143.856 306.5 143.376C305.647 142.885 304.969 142.208 304.468 141.344C303.977 140.48 303.732 139.499 303.732 138.4ZM325.757 132.832V134.64H322.781V144H320.541V134.64H317.565V132.832H325.757ZM346.58 132.832V144H344.34V136.736L341.348 144H339.652L336.644 136.736V144H334.404V132.832H336.948L340.5 141.136L344.052 132.832H346.58ZM357.243 141.872H352.795L352.059 144H349.707L353.723 132.816H356.331L360.347 144H357.979L357.243 141.872ZM356.635 140.08L355.019 135.408L353.403 140.08H356.635ZM371.048 132.832V134.64H368.072V144H365.832V134.64H362.856V132.832H371.048ZM376.522 134.64V137.44H380.282V139.216H376.522V142.176H380.762V144H374.282V132.816H380.762V134.64H376.522ZM390.158 144L387.694 139.648H386.638V144H384.398V132.832H388.59C389.454 132.832 390.19 132.987 390.798 133.296C391.406 133.595 391.859 134.005 392.158 134.528C392.467 135.04 392.622 135.616 392.622 136.256C392.622 136.992 392.408 137.659 391.982 138.256C391.555 138.843 390.92 139.248 390.078 139.472L392.75 144H390.158ZM386.638 137.968H388.51C389.118 137.968 389.571 137.824 389.87 137.536C390.168 137.237 390.318 136.827 390.318 136.304C390.318 135.792 390.168 135.397 389.87 135.12C389.571 134.832 389.118 134.688 388.51 134.688H386.638V137.968ZM398.488 132.832V144H396.248V132.832H398.488ZM409.149 141.872H404.701L403.965 144H401.613L405.629 132.816H408.237L412.253 144H409.885L409.149 141.872ZM408.541 140.08L406.925 135.408L405.309 140.08H408.541ZM417.594 142.224H421.274V144H415.354V132.832H417.594V142.224ZM428.154 144.112C427.375 144.112 426.671 143.979 426.042 143.712C425.423 143.445 424.932 143.061 424.57 142.56C424.207 142.059 424.02 141.467 424.01 140.784H426.41C426.442 141.243 426.602 141.605 426.89 141.872C427.188 142.139 427.594 142.272 428.106 142.272C428.628 142.272 429.039 142.149 429.338 141.904C429.636 141.648 429.786 141.317 429.786 140.912C429.786 140.581 429.684 140.309 429.482 140.096C429.279 139.883 429.023 139.717 428.714 139.6C428.415 139.472 427.999 139.333 427.466 139.184C426.74 138.971 426.148 138.763 425.69 138.56C425.242 138.347 424.852 138.032 424.522 137.616C424.202 137.189 424.042 136.624 424.042 135.92C424.042 135.259 424.207 134.683 424.538 134.192C424.868 133.701 425.332 133.328 425.93 133.072C426.527 132.805 427.21 132.672 427.978 132.672C429.13 132.672 430.063 132.955 430.778 133.52C431.503 134.075 431.903 134.853 431.978 135.856H429.514C429.492 135.472 429.327 135.157 429.018 134.912C428.719 134.656 428.319 134.528 427.818 134.528C427.38 134.528 427.028 134.64 426.762 134.864C426.506 135.088 426.378 135.413 426.378 135.84C426.378 136.139 426.474 136.389 426.666 136.592C426.868 136.784 427.114 136.944 427.402 137.072C427.7 137.189 428.116 137.328 428.65 137.488C429.375 137.701 429.967 137.915 430.426 138.128C430.884 138.341 431.279 138.661 431.61 139.088C431.94 139.515 432.106 140.075 432.106 140.768C432.106 141.365 431.951 141.92 431.642 142.432C431.332 142.944 430.879 143.355 430.282 143.664C429.684 143.963 428.975 144.112 428.154 144.112Z" fill="#FFFDFE"/>
<path d="M237.344 176.64V179.44H241.104V181.216H237.344V184.176H241.584V186H235.104V174.816H241.584V176.64H237.344ZM254.772 186H252.532L247.46 178.336V186H245.22V174.816H247.46L252.532 182.496V174.816H254.772V186ZM268.617 174.832L264.521 186H261.801L257.705 174.832H260.105L263.177 183.712L266.233 174.832H268.617ZM276.744 186.112C275.699 186.112 274.739 185.867 273.864 185.376C272.99 184.885 272.296 184.208 271.784 183.344C271.272 182.469 271.016 181.483 271.016 180.384C271.016 179.296 271.272 178.32 271.784 177.456C272.296 176.581 272.99 175.899 273.864 175.408C274.739 174.917 275.699 174.672 276.744 174.672C277.8 174.672 278.76 174.917 279.624 175.408C280.499 175.899 281.187 176.581 281.688 177.456C282.2 178.32 282.456 179.296 282.456 180.384C282.456 181.483 282.2 182.469 281.688 183.344C281.187 184.208 280.499 184.885 279.624 185.376C278.75 185.867 277.79 186.112 276.744 186.112ZM276.744 184.112C277.416 184.112 278.008 183.963 278.52 183.664C279.032 183.355 279.432 182.917 279.72 182.352C280.008 181.787 280.152 181.131 280.152 180.384C280.152 179.637 280.008 178.987 279.72 178.432C279.432 177.867 279.032 177.435 278.52 177.136C278.008 176.837 277.416 176.688 276.744 176.688C276.072 176.688 275.475 176.837 274.952 177.136C274.44 177.435 274.04 177.867 273.752 178.432C273.464 178.987 273.32 179.637 273.32 180.384C273.32 181.131 273.464 181.787 273.752 182.352C274.04 182.917 274.44 183.355 274.952 183.664C275.475 183.963 276.072 184.112 276.744 184.112ZM287.963 174.832V186H285.723V174.832H287.963ZM297.536 186L295.072 181.648H294.016V186H291.776V174.832H295.968C296.832 174.832 297.568 174.987 298.176 175.296C298.784 175.595 299.237 176.005 299.536 176.528C299.845 177.04 300 177.616 300 178.256C300 178.992 299.787 179.659 299.36 180.256C298.933 180.843 298.299 181.248 297.456 181.472L300.128 186H297.536ZM294.016 179.968H295.888C296.496 179.968 296.949 179.824 297.248 179.536C297.547 179.237 297.696 178.827 297.696 178.304C297.696 177.792 297.547 177.397 297.248 177.12C296.949 176.832 296.496 176.688 295.888 176.688H294.016V179.968ZM315.802 174.832V186H313.562V178.736L310.57 186H308.874L305.866 178.736V186H303.626V174.832H306.17L309.722 183.136L313.274 174.832H315.802ZM321.856 176.64V179.44H325.616V181.216H321.856V184.176H326.096V186H319.616V174.816H326.096V176.64H321.856ZM339.284 186H337.044L331.972 178.336V186H329.732V174.816H331.972L337.044 182.496V174.816H339.284V186ZM350.698 174.832V176.64H347.722V186H345.482V176.64H342.506V174.832H350.698ZM361.585 174.832V186H359.345V174.832H361.585ZM377.574 174.832V186H375.334V178.736L372.342 186H370.646L367.638 178.736V186H365.398V174.832H367.942L371.494 183.136L375.046 174.832H377.574ZM389.532 178.288C389.532 178.885 389.388 179.445 389.1 179.968C388.823 180.491 388.38 180.912 387.772 181.232C387.175 181.552 386.418 181.712 385.5 181.712H383.628V186H381.388V174.832H385.5C386.364 174.832 387.1 174.981 387.708 175.28C388.316 175.579 388.77 175.989 389.068 176.512C389.378 177.035 389.532 177.627 389.532 178.288ZM385.404 179.904C386.023 179.904 386.482 179.765 386.78 179.488C387.079 179.2 387.228 178.8 387.228 178.288C387.228 177.2 386.62 176.656 385.404 176.656H383.628V179.904H385.404ZM399.571 183.872H395.123L394.387 186H392.035L396.051 174.816H398.659L402.675 186H400.307L399.571 183.872ZM398.963 182.08L397.347 177.408L395.731 182.08H398.963ZM405.232 180.4C405.232 179.301 405.477 178.32 405.968 177.456C406.469 176.581 407.147 175.904 408 175.424C408.864 174.933 409.829 174.688 410.896 174.688C412.144 174.688 413.237 175.008 414.176 175.648C415.115 176.288 415.771 177.173 416.144 178.304H413.568C413.312 177.771 412.949 177.371 412.48 177.104C412.021 176.837 411.488 176.704 410.88 176.704C410.229 176.704 409.648 176.859 409.136 177.168C408.635 177.467 408.24 177.893 407.952 178.448C407.675 179.003 407.536 179.653 407.536 180.4C407.536 181.136 407.675 181.787 407.952 182.352C408.24 182.907 408.635 183.339 409.136 183.648C409.648 183.947 410.229 184.096 410.88 184.096C411.488 184.096 412.021 183.963 412.48 183.696C412.949 183.419 413.312 183.013 413.568 182.48H416.144C415.771 183.621 415.115 184.512 414.176 185.152C413.248 185.781 412.155 186.096 410.896 186.096C409.829 186.096 408.864 185.856 408 185.376C407.147 184.885 406.469 184.208 405.968 183.344C405.477 182.48 405.232 181.499 405.232 180.4ZM427.257 174.832V176.64H424.281V186H422.041V176.64H419.065V174.832H427.257Z" fill="#FFFDFE"/>
<path d="M235.032 216.832L231.912 228H229.272L227.176 220.048L224.984 228L222.36 228.016L219.352 216.832H221.752L223.72 225.504L225.992 216.832H228.488L230.632 225.456L232.616 216.832H235.032ZM244.943 225.872H240.495L239.759 228H237.407L241.423 216.816H244.031L248.047 228H245.679L244.943 225.872ZM244.335 224.08L242.719 219.408L241.103 224.08H244.335ZM256.908 228L254.444 223.648H253.388V228H251.148V216.832H255.34C256.204 216.832 256.94 216.987 257.548 217.296C258.156 217.595 258.609 218.005 258.908 218.528C259.217 219.04 259.372 219.616 259.372 220.256C259.372 220.992 259.158 221.659 258.732 222.256C258.305 222.843 257.67 223.248 256.828 223.472L259.5 228H256.908ZM253.388 221.968H255.26C255.868 221.968 256.321 221.824 256.62 221.536C256.918 221.237 257.068 220.827 257.068 220.304C257.068 219.792 256.918 219.397 256.62 219.12C256.321 218.832 255.868 218.688 255.26 218.688H253.388V221.968ZM268.758 228L266.294 223.648H265.238V228H262.998V216.832H267.19C268.054 216.832 268.79 216.987 269.398 217.296C270.006 217.595 270.459 218.005 270.758 218.528C271.067 219.04 271.222 219.616 271.222 220.256C271.222 220.992 271.008 221.659 270.582 222.256C270.155 222.843 269.52 223.248 268.678 223.472L271.35 228H268.758ZM265.238 221.968H267.11C267.718 221.968 268.171 221.824 268.47 221.536C268.768 221.237 268.918 220.827 268.918 220.304C268.918 219.792 268.768 219.397 268.47 219.12C268.171 218.832 267.718 218.688 267.11 218.688H265.238V221.968ZM281.696 225.872H277.248L276.512 228H274.16L278.176 216.816H280.784L284.8 228H282.432L281.696 225.872ZM281.088 224.08L279.472 219.408L277.856 224.08H281.088ZM297.453 228H295.213L290.141 220.336V228H287.901V216.816H290.141L295.213 224.496V216.816H297.453V228ZM308.866 216.832V218.64H305.89V228H303.65V218.64H300.674V216.832H308.866ZM320.981 216.832L317.205 224.112V228H314.965V224.112L311.173 216.832H313.701L316.101 221.936L318.485 216.832H320.981ZM333.189 216.832C334.363 216.832 335.392 217.061 336.277 217.52C337.173 217.979 337.861 218.635 338.341 219.488C338.832 220.331 339.077 221.312 339.077 222.432C339.077 223.552 338.832 224.533 338.341 225.376C337.861 226.208 337.173 226.853 336.277 227.312C335.392 227.771 334.363 228 333.189 228H329.285V216.832H333.189ZM333.109 226.096C334.283 226.096 335.189 225.776 335.829 225.136C336.469 224.496 336.789 223.595 336.789 222.432C336.789 221.269 336.469 220.363 335.829 219.712C335.189 219.051 334.283 218.72 333.109 218.72H331.525V226.096H333.109ZM344.594 218.64V221.44H348.354V223.216H344.594V226.176H348.834V228H342.354V216.816H348.834V218.64H344.594ZM360.07 216.832V218.64H357.094V228H354.854V218.64H351.878V216.832H360.07ZM370.152 225.872H365.704L364.968 228H362.616L366.632 216.816H369.24L373.256 228H370.888L370.152 225.872ZM369.544 224.08L367.928 219.408L366.312 224.08H369.544ZM378.597 216.832V228H376.357V216.832H378.597ZM384.65 226.224H388.33V228H382.41V216.832H384.65V226.224ZM395.21 228.112C394.431 228.112 393.727 227.979 393.098 227.712C392.479 227.445 391.989 227.061 391.626 226.56C391.263 226.059 391.077 225.467 391.066 224.784H393.466C393.498 225.243 393.658 225.605 393.946 225.872C394.245 226.139 394.65 226.272 395.162 226.272C395.685 226.272 396.095 226.149 396.394 225.904C396.693 225.648 396.842 225.317 396.842 224.912C396.842 224.581 396.741 224.309 396.538 224.096C396.335 223.883 396.079 223.717 395.77 223.6C395.471 223.472 395.055 223.333 394.522 223.184C393.797 222.971 393.205 222.763 392.746 222.56C392.298 222.347 391.909 222.032 391.578 221.616C391.258 221.189 391.098 220.624 391.098 219.92C391.098 219.259 391.263 218.683 391.594 218.192C391.925 217.701 392.389 217.328 392.986 217.072C393.583 216.805 394.266 216.672 395.034 216.672C396.186 216.672 397.119 216.955 397.834 217.52C398.559 218.075 398.959 218.853 399.034 219.856H396.57C396.549 219.472 396.383 219.157 396.074 218.912C395.775 218.656 395.375 218.528 394.874 218.528C394.437 218.528 394.085 218.64 393.818 218.864C393.562 219.088 393.434 219.413 393.434 219.84C393.434 220.139 393.53 220.389 393.722 220.592C393.925 220.784 394.17 220.944 394.458 221.072C394.757 221.189 395.173 221.328 395.706 221.488C396.431 221.701 397.023 221.915 397.482 222.128C397.941 222.341 398.335 222.661 398.666 223.088C398.997 223.515 399.162 224.075 399.162 224.768C399.162 225.365 399.007 225.92 398.698 226.432C398.389 226.944 397.935 227.355 397.338 227.664C396.741 227.963 396.031 228.112 395.21 228.112Z" fill="#FFFDFE"/>
<path d="M189.288 270.112C188.243 270.112 187.283 269.867 186.408 269.376C185.533 268.885 184.84 268.208 184.328 267.344C183.816 266.469 183.56 265.483 183.56 264.384C183.56 263.296 183.816 262.32 184.328 261.456C184.84 260.581 185.533 259.899 186.408 259.408C187.283 258.917 188.243 258.672 189.288 258.672C190.344 258.672 191.304 258.917 192.168 259.408C193.043 259.899 193.731 260.581 194.232 261.456C194.744 262.32 195 263.296 195 264.384C195 265.483 194.744 266.469 194.232 267.344C193.731 268.208 193.043 268.885 192.168 269.376C191.293 269.867 190.333 270.112 189.288 270.112ZM189.288 268.112C189.96 268.112 190.552 267.963 191.064 267.664C191.576 267.355 191.976 266.917 192.264 266.352C192.552 265.787 192.696 265.131 192.696 264.384C192.696 263.637 192.552 262.987 192.264 262.432C191.976 261.867 191.576 261.435 191.064 261.136C190.552 260.837 189.96 260.688 189.288 260.688C188.616 260.688 188.019 260.837 187.496 261.136C186.984 261.435 186.584 261.867 186.296 262.432C186.008 262.987 185.864 263.637 185.864 264.384C185.864 265.131 186.008 265.787 186.296 266.352C186.584 266.917 186.984 267.355 187.496 267.664C188.019 267.963 188.616 268.112 189.288 268.112ZM204.027 270L201.563 265.648H200.507V270H198.267V258.832H202.459C203.323 258.832 204.059 258.987 204.667 259.296C205.275 259.595 205.728 260.005 206.027 260.528C206.336 261.04 206.491 261.616 206.491 262.256C206.491 262.992 206.277 263.659 205.851 264.256C205.424 264.843 204.789 265.248 203.947 265.472L206.619 270H204.027ZM200.507 263.968H202.379C202.987 263.968 203.44 263.824 203.739 263.536C204.037 263.237 204.187 262.827 204.187 262.304C204.187 261.792 204.037 261.397 203.739 261.12C203.44 260.832 202.987 260.688 202.379 260.688H200.507V263.968ZM214.021 258.832C215.194 258.832 216.223 259.061 217.109 259.52C218.005 259.979 218.693 260.635 219.173 261.488C219.663 262.331 219.909 263.312 219.909 264.432C219.909 265.552 219.663 266.533 219.173 267.376C218.693 268.208 218.005 268.853 217.109 269.312C216.223 269.771 215.194 270 214.021 270H210.117V258.832H214.021ZM213.941 268.096C215.114 268.096 216.021 267.776 216.661 267.136C217.301 266.496 217.621 265.595 217.621 264.432C217.621 263.269 217.301 262.363 216.661 261.712C216.021 261.051 215.114 260.72 213.941 260.72H212.357V268.096H213.941ZM225.425 260.64V263.44H229.185V265.216H225.425V268.176H229.665V270H223.185V258.816H229.665V260.64H225.425ZM239.061 270L236.597 265.648H235.541V270H233.301V258.832H237.493C238.357 258.832 239.093 258.987 239.701 259.296C240.309 259.595 240.762 260.005 241.061 260.528C241.37 261.04 241.525 261.616 241.525 262.256C241.525 262.992 241.312 263.659 240.885 264.256C240.458 264.843 239.824 265.248 238.981 265.472L241.653 270H239.061ZM235.541 263.968H237.413C238.021 263.968 238.474 263.824 238.773 263.536C239.072 263.237 239.221 262.827 239.221 262.304C239.221 261.792 239.072 261.397 238.773 261.12C238.474 260.832 238.021 260.688 237.413 260.688H235.541V263.968ZM260.115 270H257.875L252.803 262.336V270H250.563V258.816H252.803L257.875 266.496V258.816H260.115V270ZM263.273 261.552C263.273 260.976 263.406 260.469 263.673 260.032C263.95 259.595 264.324 259.259 264.793 259.024C265.273 258.779 265.817 258.656 266.425 258.656C267.033 258.656 267.577 258.779 268.057 259.024C268.537 259.259 268.91 259.595 269.177 260.032C269.444 260.469 269.577 260.976 269.577 261.552C269.577 262.117 269.438 262.619 269.161 263.056C268.894 263.493 268.521 263.835 268.041 264.08C267.561 264.325 267.017 264.448 266.409 264.448C265.801 264.448 265.257 264.325 264.777 264.08C264.308 263.835 263.94 263.493 263.673 263.056C263.406 262.619 263.273 262.117 263.273 261.552ZM267.817 261.568C267.817 261.067 267.678 260.677 267.401 260.4C267.134 260.123 266.804 259.984 266.409 259.984C266.025 259.984 265.7 260.123 265.433 260.4C265.177 260.677 265.049 261.067 265.049 261.568C265.049 262.048 265.177 262.427 265.433 262.704C265.7 262.971 266.025 263.104 266.409 263.104C266.793 263.104 267.124 262.971 267.401 262.704C267.678 262.427 267.817 262.048 267.817 261.568Z" fill="#FFFDFE"/>
<rect x="0.5" y="53.5" width="181" height="174" fill="#101010" stroke="#101010"/>
<rect x="123.787" y="125.593" width="9.07407" height="36.8015" transform="rotate(-90 123.787 125.593)" fill="url(#paint0_linear_4969_321)"/>
<rect x="111.074" y="211.796" width="66.7593" height="15.5904" rx="7.79522" transform="rotate(-90 111.074 211.796)" fill="#101010"/>
<path d="M91.3349 97.9375C67.4377 97.9375 48.1211 117.252 48.1211 141.147C48.1211 165.042 67.4377 184.357 91.3349 184.357C115.232 184.357 134.549 165.042 134.549 141.147C134.549 117.252 115.232 97.9375 91.3349 97.9375ZM91.3349 175.715C72.2344 175.715 56.7639 160.246 56.7639 141.147C56.7639 122.049 72.2344 106.579 91.3349 106.579C110.435 106.579 125.906 122.049 125.906 141.147C125.906 160.246 110.435 175.715 91.3349 175.715Z" fill="url(#paint1_linear_4969_321)"/>
<rect x="67.5811" y="119.111" width="12.0441" height="84.2593" fill="#101010"/>
<rect x="101.706" y="122.352" width="17.3971" height="81.0185" fill="#101010"/>
<rect x="75.6104" y="119.111" width="26.0956" height="108.889" fill="#101010"/>
<rect x="70.9263" y="139.204" width="10.0368" height="66.7593" fill="url(#paint2_linear_4969_321)"/>
<path d="M111.074 139.204C111.074 135.078 108.959 131.121 105.194 128.204C101.43 125.287 96.324 123.648 91.0002 123.648C85.6764 123.648 80.5706 125.287 76.8061 128.204C73.0416 131.121 70.9267 135.078 70.9267 139.204H78.4542C78.4542 136.625 79.776 134.152 82.1289 132.329C84.4817 130.506 87.6728 129.481 91.0002 129.481C94.3276 129.481 97.5187 130.506 99.8715 132.329C102.224 134.152 103.546 136.625 103.546 139.204H111.074Z" fill="url(#paint3_linear_4969_321)"/>
<path d="M107.059 139.204C107.059 136.453 105.367 133.816 102.355 131.871C99.3435 129.926 95.2588 128.833 90.9998 128.833C86.7407 128.833 82.6561 129.926 79.6445 131.871C76.6329 133.816 74.9409 136.453 74.9409 139.204H80.963C80.963 137.485 82.0204 135.836 83.9027 134.621C85.785 133.405 88.3379 132.722 90.9998 132.722C93.6617 132.722 96.2146 133.405 98.0968 134.621C99.9791 135.836 101.037 137.485 101.037 139.204H107.059Z" fill="url(#paint4_linear_4969_321)"/>
<rect x="101.037" y="139.204" width="10.0368" height="64.1667" fill="url(#paint5_linear_4969_321)"/>
<rect x="55.3223" y="182.629" width="41.4815" height="13.3824" transform="rotate(-90 55.3223 182.629)" fill="#101010"/>
<path d="M91.7251 69.8521C52.1019 69.8521 20.0737 100.876 20.0737 139.258C20.0737 177.639 52.1019 208.664 91.7251 208.664C131.348 208.664 163.376 177.639 163.376 139.258C163.376 100.876 131.348 69.8521 91.7251 69.8521ZM91.7251 194.783C60.0552 194.783 34.404 169.935 34.404 139.258C34.404 108.581 60.0552 83.7332 91.7251 83.7332C123.395 83.7332 149.046 108.581 149.046 139.258C149.046 169.935 123.395 194.783 91.7251 194.783Z" fill="url(#paint6_linear_4969_321)"/>
<rect x="55.3223" y="211.148" width="66.7593" height="15.5904" rx="7.79522" transform="rotate(-90 55.3223 211.148)" fill="#101010"/>
<rect x="113.75" y="152.815" width="30.463" height="68.25" transform="rotate(-90 113.75 152.815)" fill="#101010"/>
<rect x="34.4595" y="140.5" width="14.0515" height="64.1667" fill="#101010"/>
<rect x="155.904" y="173.556" width="14.7206" height="42.7778" fill="#101010"/>
<rect x="48.123" y="140.5" width="8.645" height="65.463" fill="url(#paint7_linear_4969_321)"/>
<rect x="123.787" y="152.815" width="32.7868" height="7.12963" fill="url(#paint8_linear_4969_321)"/>
<path d="M91.0001 59.4814C44.7473 59.4814 7.36035 95.6967 7.36035 140.5C7.36035 185.303 44.7473 221.518 91.0001 221.518C137.253 221.518 174.64 185.303 174.64 140.5C174.64 95.6967 137.253 59.4814 91.0001 59.4814ZM91.0001 205.315C54.0313 205.315 24.0883 176.31 24.0883 140.5C24.0883 104.69 54.0313 75.6851 91.0001 75.6851C127.969 75.6851 157.912 104.69 157.912 140.5C157.912 176.31 127.969 205.315 91.0001 205.315Z" fill="#101010"/>
<defs>
<linearGradient id="paint0_linear_4969_321" x1="139.379" y1="107.806" x2="122.379" y2="147.306" gradientUnits="userSpaceOnUse">
<stop stop-color="#E94981"/>
<stop offset="1" stop-color="#2B4570"/>
</linearGradient>
<linearGradient id="paint1_linear_4969_321" x1="91.3349" y1="97.9375" x2="91.3349" y2="184.357" gradientUnits="userSpaceOnUse">
<stop stop-color="#2B4570"/>
<stop offset="1" stop-color="#E94981"/>
</linearGradient>
<linearGradient id="paint2_linear_4969_321" x1="75.9447" y1="139.204" x2="75.9447" y2="205.963" gradientUnits="userSpaceOnUse">
<stop stop-color="#2B4570"/>
<stop offset="1" stop-color="#E94981"/>
</linearGradient>
<linearGradient id="paint3_linear_4969_321" x1="111.074" y1="131.426" x2="70.9267" y2="131.426" gradientUnits="userSpaceOnUse">
<stop stop-color="#2B4570"/>
<stop offset="1" stop-color="#E94981"/>
</linearGradient>
<linearGradient id="paint4_linear_4969_321" x1="107.059" y1="134.019" x2="74.9409" y2="134.019" gradientUnits="userSpaceOnUse">
<stop stop-color="#2B4570"/>
<stop offset="1" stop-color="#E94981"/>
</linearGradient>
<linearGradient id="paint5_linear_4969_321" x1="106.055" y1="139.204" x2="106.055" y2="203.37" gradientUnits="userSpaceOnUse">
<stop stop-color="#2B4570"/>
<stop offset="1" stop-color="#E94981"/>
</linearGradient>
<linearGradient id="paint6_linear_4969_321" x1="91.7251" y1="69.8521" x2="91.7251" y2="208.664" gradientUnits="userSpaceOnUse">
<stop stop-color="#2B4570"/>
<stop offset="1" stop-color="#E94981"/>
</linearGradient>
<linearGradient id="paint7_linear_4969_321" x1="52.4455" y1="140.5" x2="52.4455" y2="205.963" gradientUnits="userSpaceOnUse">
<stop stop-color="#2B4570"/>
<stop offset="1" stop-color="#E94981"/>
</linearGradient>
<linearGradient id="paint8_linear_4969_321" x1="140.18" y1="152.815" x2="140.18" y2="159.945" gradientUnits="userSpaceOnUse">
<stop stop-color="#2B4570"/>
<stop offset="1" stop-color="#E94981"/>
</linearGradient>
</defs>
</svg>
